<svg width="147" height="16" viewBox="0 0 147 16" fill="none" xmlns="http://www.w3.org/2000/svg">
<path d="M0.9375 15H4.88636V11.25L6.19318 9.54545L9.46023 15H14.1761L9.14773 6.93182L14.0625 0.454545H9.46023L5.08523 6.33523H4.88636V0.454545H0.9375V15ZM21.6815 10.2273C21.6886 11.3068 21.0636 11.9602 20.0906 11.9602C19.1033 11.9602 18.5352 11.3068 18.5281 10.2273V4.09091H14.6076V11.0511C14.6147 13.4375 16.1204 15.142 18.4144 15.142C20.0408 15.142 21.2908 14.3182 21.7667 12.9261H21.8803V15H25.6019V4.09091H21.6815V10.2273ZM27.7095 15H37.2834V12.017H32.7663V11.9602L37.1129 6.47727V4.09091H27.88V7.07386H32.4822V7.13068L27.7095 12.8409V15ZM43.3718 8.86364C43.3789 7.78409 43.9897 7.13068 44.9627 7.13068C45.9499 7.13068 46.5323 7.78409 46.5252 8.86364V15H50.4457V8.03977C50.4528 5.66761 48.9542 3.94886 46.6388 3.94886C45.0337 3.94886 43.7624 4.78693 43.2866 6.16477H43.1729V4.09091H39.4513V15H43.3718V8.86364ZM57.6083 15.1989C60.6339 15.1989 62.5799 13.75 62.9492 11.4773H59.3697C59.1424 12.0952 58.4961 12.4432 57.6935 12.4432C56.5288 12.4432 55.8469 11.6761 55.8469 10.625V10.4545H62.9492V9.54545C62.9492 6.07244 60.8185 3.94886 57.5231 3.94886C54.1424 3.94886 51.9833 6.19318 51.9833 9.57386C51.9833 13.1037 54.114 15.1989 57.6083 15.1989ZM55.8469 8.29545C55.8683 7.35085 56.6495 6.70455 57.6083 6.70455C58.5813 6.70455 59.32 7.35795 59.3413 8.29545H55.8469ZM71.0547 4.09091H69.1797V1.47727H65.2592V4.09091H63.8672V6.93182H65.2592V11.8608C65.2308 14.1477 66.6442 15.3054 69.3501 15.1562C70.2379 15.1065 70.8984 14.9219 71.2536 14.8153L70.6854 12.0597C70.5362 12.0952 70.1527 12.1733 69.9183 12.1733C69.407 12.1733 69.1797 11.946 69.1797 11.4915V6.93182H71.0547V4.09091ZM82.5089 7.64205C82.4094 5.33381 80.4918 3.94886 77.3384 3.94886C74.2205 3.94886 72.2958 5.22727 72.31 7.5C72.2958 9.21875 73.4109 10.3196 75.6339 10.7102L77.5657 11.0511C78.418 11.2074 78.8015 11.4347 78.8157 11.8466C78.8015 12.3011 78.283 12.5568 77.5657 12.5568C76.6779 12.5568 76.0529 12.1733 75.9464 11.4773H72.0543C72.2674 13.7145 74.1992 15.1989 77.5373 15.1989C80.5558 15.1989 82.7788 13.7287 82.793 11.392C82.7788 9.77983 81.6992 8.84233 79.4691 8.4375L77.2532 8.03977C76.4222 7.89062 76.1879 7.59233 76.2021 7.27273C76.1879 6.81818 76.7489 6.5625 77.4237 6.5625C78.1978 6.5625 78.8441 6.97443 78.9009 7.64205H82.5089ZM89.5508 15.1989C93.1019 15.1989 95.2042 12.9261 95.2042 9.57386C95.2042 6.22159 93.1019 3.94886 89.5508 3.94886C85.9996 3.94886 83.8974 6.22159 83.8974 9.57386C83.8974 12.9261 85.9996 15.1989 89.5508 15.1989ZM89.5792 12.3011C88.5281 12.3011 87.9031 11.2571 87.9031 9.54545C87.9031 7.83381 88.5281 6.78977 89.5792 6.78977C90.5735 6.78977 91.1985 7.83381 91.1985 9.54545C91.1985 11.2571 90.5735 12.3011 89.5792 12.3011ZM107.457 4.09091H103.338L101.577 11.3068H101.463L99.7017 4.09091H95.5824L99.2472 15H103.793L107.457 4.09091ZM114.112 15C118.544 15 121.357 12.2727 121.357 7.72727C121.357 3.18182 118.544 0.454545 114.055 0.454545H108.516V15H114.112ZM112.464 11.6477V3.80682H113.857C116.129 3.80682 117.379 4.6875 117.379 7.72727C117.379 10.767 116.129 11.6477 113.97 11.6477H112.464ZM128.468 15.1989C131.493 15.1989 133.439 13.75 133.809 11.4773H130.229C130.002 12.0952 129.355 12.4432 128.553 12.4432C127.388 12.4432 126.706 11.6761 126.706 10.625V10.4545H133.809V9.54545C133.809 6.07244 131.678 3.94886 128.382 3.94886C125.002 3.94886 122.843 6.19318 122.843 9.57386C122.843 13.1037 124.973 15.1989 128.468 15.1989ZM126.706 8.29545C126.728 7.35085 127.509 6.70455 128.468 6.70455C129.441 6.70455 130.179 7.35795 130.201 8.29545H126.706ZM146.11 4.09091H141.99L140.229 11.3068H140.115L138.354 4.09091H134.235L137.9 15H142.445L146.11 4.09091Z" fill="white"/>
</svg>
